mtllib saucer.mtl

# Vertices
# 1: Top Center
v 0.0 0.5 0.0

# 2-9: Dome Rim (y=0.2, r=0.5)
v 0.5 0.2 0.0
v 0.35 0.2 0.35
v 0.0 0.2 0.5
v -0.35 0.2 0.35
v -0.5 0.2 0.0
v -0.35 0.2 -0.35
v 0.0 0.2 -0.5
v 0.35 0.2 -0.35

# 10-17: Disk Rim (y=0.0, r=1.5)
v 1.5 0.0 0.0
v 1.06 0.0 1.06
v 0.0 0.0 1.5
v -1.06 0.0 1.06
v -1.5 0.0 0.0
v -1.06 0.0 -1.06
v 0.0 0.0 -1.5
v 1.06 0.0 -1.06

# 18: Bottom Center
v 0.0 -0.3 0.0

# Dome
usemtl Dome
f 1 2 3
f 1 3 4
f 1 4 5
f 1 5 6
f 1 6 7
f 1 7 8
f 1 8 9
f 1 9 2

# Body Top Surface
usemtl Body
f 2 10 11
f 2 11 3
f 3 11 12
f 3 12 4
f 4 12 13
f 4 13 5
f 5 13 14
f 5 14 6
f 6 14 15
f 6 15 7
f 7 15 16
f 7 16 8
f 8 16 17
f 8 17 9
f 9 17 10
f 9 10 2

# Body Bottom Surface
usemtl Lights
f 18 11 10
f 18 12 11
f 18 13 12
f 18 14 13
f 18 15 14
f 18 16 15
f 18 17 16
f 18 10 17
