mtllib asteroid.mtl

# Vertices
v 0.1 0.6 -0.1
v -0.1 -0.6 0.1
v -0.455 0.1 -1.225
v -1.605 -0.2 -0.325
v -0.855 0.15 -0.025
v -1.605 -0.1 0.3
v -0.805 0.2 1.2
v -0.005 -0.15 0.3
v -0.005 0.1 1.2
v 0.795 -0.2 1.2
v 1.62 0.15 0.25
v 0.82 -0.1 -1.225

# Normals
vn 0.1 0.6 -0.1
vn -0.1 -0.6 0.1
vn -0.455 0.1 -1.225
vn -1.605 -0.2 -0.325
vn -0.855 0.15 -0.025
vn -1.605 -0.1 0.3
vn -0.805 0.2 1.2
vn -0.005 -0.15 0.3
vn -0.005 0.1 1.2
vn 0.795 -0.2 1.2
vn 1.62 0.15 0.25
vn 0.82 -0.1 -1.225

usemtl Rock
f 1//1 3//3 4//4
f 1//1 5//5 6//6
f 1//1 7//7 8//8
f 1//1 9//9 10//10
f 1//1 11//11 12//12
f 2//2 4//4 3//3
f 2//2 6//6 5//5
f 2//2 8//8 7//7
f 2//2 10//10 9//9
f 2//2 12//12 11//11

usemtl RockDark
f 1//1 4//4 5//5
f 1//1 8//8 9//9
f 1//1 12//12 3//3
f 2//2 7//7 6//6
f 2//2 11//11 10//10

usemtl RockLight
f 1//1 6//6 7//7
f 1//1 10//10 11//11
f 2//2 5//5 4//4
f 2//2 9//9 8//8
f 2//2 3//3 12//12
