mtllib torpedo.mtl

# Vertices
v 0.0 0.0 0.8
v 0.1 0.1 0.4
v -0.1 0.1 0.4
v -0.1 -0.1 0.4
v 0.1 -0.1 0.4
v 0.1 0.1 -0.4
v -0.1 0.1 -0.4
v -0.1 -0.1 -0.4
v 0.1 -0.1 -0.4
v 0.3 0.0 -0.6
v -0.3 0.0 -0.6
v 0.0 0.3 -0.6
v 0.0 -0.3 -0.6

# Warhead (Red tip)
usemtl Warhead
f 1 3 2
f 1 4 3
f 1 5 4
f 1 2 5

# Body (Grey cylinder)
usemtl Body
# Top
f 2 3 7
f 7 6 2
# Left
f 3 8 4
f 3 7 8
# Bottom
f 4 9 5
f 4 8 9
# Right
f 5 6 2
f 5 9 6

# Fins (Double sided)
# Right Fin
f 6 9 10
f 10 9 6
# Left Fin
f 7 11 8
f 8 11 7
# Top Fin
f 6 12 7
f 7 12 6
# Bottom Fin
f 9 13 8
f 8 13 9

# Thruster (Rear)
usemtl Thruster
f 9 6 7
f 7 8 9
